<?xml version="1.0" encoding="utf-8"?>
<!-- Generator: Adobe Illustrator 18.1.0, SVG Export Plug-In . SVG Version: 6.00 Build 0)  -->
<svg version="1.1" id="Layer_1" xmlns="http://www.w3.org/2000/svg" xmlns:xlink="http://www.w3.org/1999/xlink" x="0px" y="0px"
	 viewBox="0 0 401.3 295.3" enable-background="new 0 0 401.3 295.3" xml:space="preserve">
<rect x="7.4" y="77.5" stroke="#000000" stroke-width="4" stroke-miterlimit="10" width="386.4" height="174.7"/>
<g>
	<g>
		<g>
			<path fill="#182432" d="M184.1,23c0-0.2,0-0.5,0-0.7c0.4-0.2,0.3-0.6,0.4-1c1.3-5.1,4.9-8.6,10.7-10.4c1.1-0.4,2.4-0.5,3.6-0.8
				c0.3,0,0.6,0,0.8,0c0.5,0.2,1,0.2,1.5,0c0.3,0,0.6,0,0.8,0c0.1,0.2,0.3,0.2,0.4,0.2c6.5,0.9,10.9,4,13.2,9.2c0.4,1,0.6,2,1,3
				c0,0.2,0,0.4,0,0.5c-0.2,0.1-0.2,0.2-0.2,0.4c0,0.5,0,1,0,1.4c0,0.1,0,0.3,0.2,0.3c0,0.2,0,0.5,0,0.7c-0.4,0.2-0.3,0.6-0.4,0.9
				c-1.5,5.5-5.4,9-11.8,10.6c-0.7,0.2-1.4,0.1-2,0.5c-0.2,0-0.4,0-0.6,0c-0.1-0.2-0.2-0.2-0.4-0.2c-0.2,0-0.4,0-0.6,0
				c-0.4,0-0.9-0.1-1.3,0.1c-0.3,0-0.7,0-1,0c-0.2-0.3-0.6-0.2-0.8-0.3c-7-1.4-11.4-5-13-11c-0.1-0.2,0-0.6-0.4-0.7
				c0-0.2,0-0.5,0-0.7c0.3-0.1,0.2-0.3,0.2-0.5c0-0.4,0-0.9,0-1.3C184.3,23.2,184.3,23.1,184.1,23z M212.8,23.9
				c0-5.9-5.6-10.7-12.5-10.7c-7,0-12.6,4.8-12.6,10.8c0,5.8,5.7,10.6,12.5,10.6C207.1,34.6,212.8,29.8,212.8,23.9z"/>
		</g>
		<path fill="#1F3854" d="M212.8,23.9c0,5.9-5.7,10.7-12.6,10.7c-6.8,0-12.5-4.9-12.5-10.6c0-6,5.6-10.8,12.6-10.8
			C207.1,13.2,212.8,18,212.8,23.9z M200.2,31.2c4.7,0,8.4-3.1,8.4-7.1c0-4-3.8-7.2-8.3-7.2c-4.6,0-8.4,3.3-8.4,7.2
			C191.9,28.1,195.5,31.2,200.2,31.2z"/>
		<path fill="#182432" d="M200.2,31.2c-4.6,0-8.3-3.2-8.3-7.1c0-4,3.8-7.2,8.4-7.2c4.6,0,8.3,3.3,8.3,7.2
			C208.6,28.1,204.9,31.2,200.2,31.2z M205,21.8c0-2.2-2.1-4-4.7-4c-2.5,0-4.7,1.8-4.7,4c0,2.2,2.2,4.1,4.7,4.1
			C202.9,25.8,205,24,205,21.8z M201.6,28.2c0-0.6-0.7-1.2-1.4-1.2c-0.7,0-1.4,0.6-1.4,1.2c0,0.6,0.7,1.2,1.4,1.2
			C200.9,29.4,201.6,28.8,201.6,28.2z"/>
		<path fill="#28496B" d="M205,21.8c0,2.2-2.2,4-4.7,4c-2.6,0-4.7-1.9-4.7-4.1c0-2.2,2.2-4,4.7-4C202.9,17.8,205,19.7,205,21.8z"/>
		<path fill="#28496B" d="M201.6,28.2c0,0.6-0.7,1.2-1.4,1.2c-0.7,0-1.4-0.6-1.4-1.2c0-0.6,0.7-1.2,1.4-1.2
			C201,27,201.6,27.6,201.6,28.2z"/>
	</g>
</g>
<path fill="#414042" stroke="#939598" stroke-width="4" stroke-miterlimit="10" d="M7.7,128.1c50.1,0,99.9,0,150.1,0
	c-9.4,22-10,44-1.3,66c6.3,15.9,16.8,28.6,30.9,38.3c28.4,19.4,67.1,18.9,95.1-0.2c25.5-17.4,48.9-58.4,29.6-104
	c27.2,0,54.3,0,81.7,0c0.1,1.3,0.2,2.6,0.2,3.8c-0.1,40-0.2,80.1-0.1,120.1c0,13.7-5.1,24.6-17.7,30.5c-4.7,2.2-10.4,3.2-15.7,3.3
	c-69.7,0.2-139.4,0.1-209.2,0.1c-36.9,0-73.9,0-110.8,0c-13.5,0-23.8-5.4-29.7-17.6c-1.9-4-3.1-8.9-3.1-13.4
	C7.4,213.4,7.5,171.7,7.5,130C7.5,129.5,7.6,129,7.7,128.1z"/>
<path fill="#414042" stroke="#939598" stroke-width="4" stroke-miterlimit="10" d="M393.4,119.5c-3.1,0-5.8,0-8.5,0
	c-24.8,0-49.6-0.1-74.4,0c-2.5,0-4.2-0.5-5.7-2.8c-11.2-17.3-26.8-29.2-46.6-35c-23.6-7-46.2-3.8-67.3,8.9
	c-11,6.6-19.8,15.6-27,26.2c-0.8,1.2-2.7,2.5-4.1,2.5c-50.2,0.1-100.4,0-150.6,0c-0.4,0-0.7-0.1-1.4-0.2c-0.1-0.8-0.4-1.6-0.4-2.5
	c0-14.6-0.2-29.2,0-43.8c0.2-15.1,9.6-26.6,24.2-30.1c2.8-0.7,5.9-0.8,8.8-0.8c106.6,0,213.2,0,319.9,0c16.7,0,28.1,8.5,32.3,23.9
	c0.7,2.6,1,5.3,1,8c0.1,14.5,0,28.9,0,43.4C393.7,117.8,393.6,118.4,393.4,119.5z"/>
<g>
	<g>
		<g>
			<path fill="#182432" d="M181.1,158.4c0-0.9,0-1.8,0-2.7c1.3-0.9,1-2.5,1.2-3.7c4.4-19.7,16.2-33,35.1-39.9c3.8-1.4,7.8-2,11.7-3
				c0.9,0,1.8,0,2.7,0c1.6,0.9,3.2,0.9,4.8,0c0.9,0,1.8,0,2.7,0c0.3,0.6,0.9,0.6,1.4,0.7c21.3,3.4,35.8,15.2,43.5,35.4
				c1.4,3.7,2.1,7.5,3.1,11.3c0,0.7,0,1.4,0,2.1c-0.5,0.3-0.6,0.8-0.6,1.4c0,1.9,0,3.7,0,5.6c0,0.5,0,1.1,0.6,1.3c0,0.9,0,1.8,0,2.7
				c-1.3,0.8-1,2.2-1.3,3.3c-5,21.1-17.9,34.6-38.6,40.7c-2.2,0.7-4.7,0.4-6.7,1.9c-0.7,0-1.4,0-2.1,0c-0.3-0.6-0.8-0.6-1.3-0.6
				c-0.7,0-1.4,0.1-2.1,0.1c-1.4,0-2.8-0.5-4.1,0.5c-1.1,0-2.3,0-3.4,0c-0.6-1.2-1.8-0.8-2.7-1c-23.1-5.2-37.4-19.2-42.8-42.3
				c-0.2-0.9,0-2.1-1.2-2.7c0-0.9,0-1.8,0-2.7c0.8-0.5,0.6-1.3,0.6-2c0-1.6,0-3.3,0-4.9C181.7,159.2,181.7,158.7,181.1,158.4z
				 M275.2,161.8c0-22.5-18.5-41.1-41-41.2c-22.9,0-41.4,18.5-41.3,41.5c0,22.2,18.7,40.8,41,40.8
				C256.6,203,275.2,184.5,275.2,161.8z"/>
		</g>
		<path fill="#1F3854" d="M275.2,161.8c0,22.7-18.6,41.2-41.3,41.2c-22.3,0-41-18.6-41-40.8c0-23,18.4-41.5,41.3-41.5
			C256.6,120.7,275.2,139.3,275.2,161.8z M233.8,190c15.5,0,27.7-12,27.7-27.2c0-15.2-12.4-27.7-27.4-27.7
			c-15,0-27.4,12.5-27.5,27.6C206.5,177.8,218.6,189.9,233.8,190z"/>
		<path fill="#182432" d="M233.8,190c-15.2,0-27.3-12.1-27.2-27.2c0-15.2,12.5-27.7,27.5-27.6c15,0,27.4,12.5,27.4,27.7
			C261.4,178,249.2,190,233.8,190z M249.7,153.9c0-8.3-7.1-15.4-15.3-15.4c-8.3-0.1-15.4,7-15.5,15.2c-0.1,8.4,7.1,15.6,15.5,15.6
			C242.7,169.3,249.7,162.2,249.7,153.9z M238.6,178.4c0.1-2.4-2.1-4.6-4.5-4.7c-2.4-0.1-4.6,2.1-4.7,4.5c-0.1,2.4,2.2,4.6,4.5,4.7
			C236.2,182.9,238.5,180.7,238.6,178.4z"/>
		<path fill="#28496B" d="M249.7,153.9c0,8.3-7.1,15.4-15.3,15.4c-8.4,0-15.6-7.2-15.5-15.6c0.1-8.3,7.2-15.3,15.5-15.2
			C242.7,138.6,249.7,145.7,249.7,153.9z"/>
		<path fill="#28496B" d="M238.6,178.4c-0.1,2.4-2.3,4.6-4.7,4.5c-2.4-0.1-4.6-2.3-4.5-4.7c0.1-2.4,2.3-4.6,4.7-4.5
			C236.4,173.7,238.6,176,238.6,178.4z"/>
	</g>
</g>
<path fill="none" stroke="#808285" stroke-width="4" stroke-miterlimit="10" d="M180.8,162.5c0.4-30.3,25.1-54.5,55.2-53.9
	c28.1,0.5,52.8,24.1,52.5,54.6c-0.2,30.1-24.9,53.5-55,53.1C204.4,215.9,180.4,191.4,180.8,162.5z"/>
<path fill="#414042" stroke="#939598" stroke-width="4" stroke-miterlimit="10" d="M264.1,36.2c-43.4,0-86,0-129.3,0
	c5.1-7.4,10.2-14.2,14.5-21.5c2.9-4.9,6.3-6.5,12-6.4c27.2,0.4,54.4,0.2,81.7,0.1c3,0,4.6,0.9,6.1,3.4
	C253.8,19.9,258.8,27.8,264.1,36.2z M183.7,14.9c0,5.6,0,10.7,0,15.7c11.1,0,21.9,0,32.7,0c0-5.4,0-10.5,0-15.7
	C205.5,14.9,194.7,14.9,183.7,14.9z"/>
<path fill="#182432" stroke="#939598" stroke-width="4" stroke-miterlimit="10" d="M303.3,36.1c2.1-4.9,3.8-9.4,5.9-13.8
	c0.5-0.9,2.1-1.9,3.2-1.9c11.1-0.1,22.1-0.1,33.2,0c1,0,2.5,0.5,2.8,1.2c2,4.7,3.8,9.4,5.8,14.5C337.1,36.1,320.5,36.1,303.3,36.1z"
	/>
<path fill="#182432" stroke="#808285" stroke-width="4" stroke-miterlimit="10" d="M90.7,36.1c-11.7,0-22.7,0-34.1,0
	c0.8-2.8,1.4-5.4,2.5-7.9c0.4-1,1.9-2.1,2.9-2.1c8-0.2,16-0.2,24,0c1,0,2.5,1.4,2.9,2.5C89.8,30.8,90.1,33.3,90.7,36.1z"/>
<g>
	<path fill="#F1F2F2" d="M35.4,256.3c-1.9,0.6-3.3,0.9-4.1,0.9c-0.7,0-1.3-0.2-1.8-0.5c-0.7-0.4-1.1-1-1.1-1.7c0-0.4,0.1-0.7,0.4-1
		h0.9c0,1,0.4,1.5,1.2,1.5c2.5,0,5-1,7.5-3c2.6-2.1,3.9-4.3,3.9-6.6c0-1.5-0.7-2.6-2.1-3.4c-1.1-0.7-2.6-1-4.3-1
		c-2.3,0-4.6,0.6-6.9,1.9c-1.5,0.8-3.4,2.2-5.9,4.2c-0.5,0.4-0.8,0.6-0.9,0.6c-0.3,0-0.5-0.1-0.8-0.3s-0.4-0.5-0.4-0.8
		c0-0.2,0.3-0.6,1-1.2c0.5-0.5,1-0.9,1.4-1.1c2.7-1.8,4.7-2.9,6-3.5c2-0.8,4.3-1.2,7.1-1.2c2.3,0,4.1,0.6,5.4,1.8
		c1.3,1.2,1.9,2.8,1.9,4.8c0,1.9-1,3.8-2.9,5.8C39.1,254.4,37.3,255.7,35.4,256.3z M29.4,267.1c-1.7,0-2.8-1-3.6-3.1
		c-0.5-1.4-0.7-3-0.7-5c0-0.4,0-0.9-0.1-1.6c-0.1-0.7-0.1-1.3-0.1-1.6c0-3.6,0.1-6.4,0.4-8.6c0.1-1,0.5-1.5,1.1-1.5c0.7,0,1,0.3,1,1
		c0,0.4-0.1,0.9-0.2,1.6c-0.2,0.8-0.3,1.4-0.3,1.6c-0.3,2.3-0.5,4.4-0.5,6.4c0,6.3,1,9.4,3,9.4c0.1,0,0.2,0,0.3,0l0.6,0.6
		C30.2,266.8,29.9,267.1,29.4,267.1z"/>
	<path fill="#F1F2F2" d="M47.7,266.1c-1.2,0-2.1-0.9-2.7-2.8c-0.4-1.3-0.7-2.5-0.7-3.7c0-1.1,0.1-2.5,0.4-4.1c0.4-2.3,1-3.5,1.7-3.5
		c0.6,0,0.8,0.3,0.8,1c0,0.3-0.2,0.9-0.5,1.7c-0.4,0.9-0.6,2.4-0.8,4.6c0,1,0,1.6,0,1.8c0.2,0.8,0.3,1.5,0.5,2.3
		c0.3,1,0.8,1.5,1.4,1.5c0.1,0,0.2,0,0.3-0.1c0.2-0.2,0.4-0.4,0.7-0.6c0.3,0.2,0.4,0.4,0.4,0.6c0,0.3-0.2,0.6-0.7,0.9
		C48.3,266,48,266.1,47.7,266.1z M46.6,247.6c-0.3,0-0.5-0.1-0.7-0.4c-0.2-0.2-0.3-0.5-0.3-0.7c0-0.2,0.1-0.5,0.3-0.7
		c0.2-0.2,0.4-0.4,0.7-0.4c0.6,0,1,0.4,1,1.1C47.6,247.3,47.2,247.6,46.6,247.6z"/>
	<path fill="#F1F2F2" d="M61.3,252.9c-0.3,0-0.6-0.2-1.1-0.7c-0.4-0.4-0.8-0.7-1.3-0.7c-1.5,0-3.1,1.4-4.7,4.2
		c-1.4,2.5-2.1,4.5-2.1,5.9c0,1.6,0.7,2.4,2,2.4c1.3,0,2.6-0.4,3.9-1.3c1.2-0.8,2.2-1.8,3-3.2c0.1-0.1,0.2-0.2,0.3-0.2
		c0.1,0,0.3,0.1,0.4,0.3c0.1,0.2,0.2,0.4,0.1,0.5c-0.1,0.4-0.8,1.2-2.1,2.5c-1.2,1.2-1.9,1.8-2.2,1.9c-1.2,0.7-2,1-2.3,1
		c0,0-0.2,0-0.5,0c-0.3,0-0.4,0-0.5,0c-1.3,0-2.3-0.5-2.9-1.4c-0.5-0.8-0.8-1.7-0.8-2.9c0-1.8,0.8-4.1,2.5-6.7c1.9-3,3.9-4.5,6-4.6
		c0.4,0,0.9,0.2,1.6,0.5c0.9,0.4,1.4,0.9,1.4,1.5c0,0.2-0.1,0.4-0.3,0.6S61.5,252.9,61.3,252.9z"/>
	<path fill="#F1F2F2" d="M71.3,252.2c-0.1,0-0.3-0.1-0.7-0.3c-0.4-0.2-0.7-0.3-0.9-0.4c-0.8-0.1-2,0.5-3.5,1.8
		c-1.6,1.3-2.4,2.5-2.4,3.5c0,0.5,0.9,0.8,2.7,0.8c3.5,0,5.3,1,5.3,2.9c0,1.4-0.8,2.6-2.3,3.7c-1.4,1-2.8,1.5-4.2,1.5
		c-0.6,0-1.2-0.2-1.7-0.6c-0.6-0.4-0.9-1-0.9-1.7c0-0.3,0.1-0.6,0.4-1c0.3-0.4,0.6-0.7,0.9-0.7c0.1,0,0.2,0,0.3,0.1
		c0,0.4-0.1,0.8-0.2,1c-0.1,0.1-0.1,0.3-0.1,0.4c0,0.6,0.3,0.8,1,0.8c1,0,2.2-0.3,3.5-1c1.5-0.7,2.2-1.5,2.2-2.4
		c0-0.5-0.3-0.9-0.8-1.3c-0.4-0.3-0.9-0.4-1.4-0.4l-3.6-0.1c-0.6,0-1.2-0.1-1.7-0.4c-0.8-0.3-1.1-0.7-1.1-1.2c0-1.2,1-2.8,2.9-4.7
		c1.9-1.9,3.6-2.8,4.9-2.8c0.4,0,0.8,0.1,1.4,0.4c0.6,0.3,1,0.7,1,1.2C71.9,252,71.7,252.2,71.3,252.2z"/>
	<path fill="#F1F2F2" d="M76.2,253.3c0.6-0.1,1.2-0.2,2-0.2c0.4,0,0.8,0.1,1.3,0.4c0.6,0.3,1,0.8,1,1.2c0,0.1,0,0.2-0.1,0.2l0,0.1
		c0,0,0,0-0.1,0.1c-0.1,0-0.2,0.1-0.1,0.1h0c-0.1,0-0.2,0.1-0.3,0.1c-0.1,0-0.2-0.1-0.3-0.2c-0.2-0.6-0.7-0.9-1.2-0.9
		c-0.2,0-0.4,0-0.7,0.1c-0.5,0.1-1.1,0.4-1.6,0.7c0,0.1,0,0.2,0,0.3c-0.2,1.3-0.2,2.8-0.1,4.6c0.1,3.3,0.9,4.9,2.2,4.9
		c0.4,0,0.7-0.2,1.1-0.6c0.3-0.4,0.5-0.6,0.7-0.6c0.4,0,0.6,0.2,0.6,0.6c0,0.4-0.4,0.9-1.1,1.3c-0.6,0.3-1.1,0.5-1.4,0.5
		c-1.1,0-2-0.6-2.7-1.8c-0.5-0.9-0.8-1.9-0.9-2.9c-0.2-1.9-0.2-3.8,0-5.6c-0.7,0.2-1.5,0.7-2.5,1.5c-0.1,0.1-0.2,0.1-0.4,0.1
		c-0.3,0-0.5-0.3-0.5-1c0-0.4,1-1.1,3.1-2.1c0.1,0,0.2-0.1,0.4-0.1c0.1-0.8,0.2-2.1,0.4-3.8c0.2-1.7,0.6-2.5,1.3-2.5
		c0.5,0,0.8,0.3,0.9,1L76.2,253.3z"/>
	<path fill="#F1F2F2" d="M94.4,264c-1.2-0.4-1.8-1.8-1.8-4.1c0-0.2,0-0.5,0-0.8c-1.2,1.6-2.6,3.1-4.1,4.5c-1.9,1.7-3.4,2.6-4.5,2.6
		c-0.4,0-0.7-0.1-0.9-0.3c-0.4-0.3-0.7-0.9-0.7-1.6c0-1.6,0.8-3.7,2.5-6.3c1.6-2.5,3.4-4.6,5.3-6.2c2.1-1.8,3.6-2.3,4.6-1.7
		c0.5,0.3,0.7,0.9,0.7,1.9c0,1.1-0.4,1.8-1.2,1.8c-0.5,0-0.8-0.2-0.8-0.6c0-0.1,0-0.1,0-0.2c0.2-0.6,0.3-1.1,0.3-1.6
		c0-0.3,0-0.4-0.1-0.4c-1.2,0.2-3.2,2.1-6,5.7s-4.1,6-4.1,7.4c0,0.5,0.2,0.7,0.6,0.7c1.1,0,2.8-1.4,5.1-4.2c1.6-1.9,2.5-3,2.6-3.2
		c0.7-1,1.1-1.9,1.2-2.7c0.1-0.6,0.4-0.8,0.9-0.8c0.8,0,1.1,0.4,0.9,1.1c-0.6,3.2-0.9,5.1-0.9,5.8c0,1.3,0.3,2,0.8,2.1
		c0.2,0,0.4,0,0.6-0.1c0.2-0.1,0.3-0.2,0.3-0.3c0.1-0.5,0.4-0.8,0.9-0.8c0.3,0,0.4,0.2,0.4,0.5c0,0.1,0,0.3-0.1,0.5
		c-0.4,1-1.1,1.5-2.1,1.5C95,264.2,94.7,264.2,94.4,264z"/>
	<path fill="#F1F2F2" d="M105,276.9c-1.6,0-3-0.7-4.3-2.1c-1.3-1.4-1.9-2.9-1.9-4.5c0-0.7,0.2-1.1,0.7-1.1c0.3,0,0.5,0.2,0.5,0.6
		c0,1.4,0.4,2.7,1.4,3.8c1,1.1,2.1,1.7,3.3,1.7c2.5,0,4.3-1.8,5.5-5.5c0.8-2.3,1.1-4.6,1.1-7c0-4.6-0.4-6.9-1.2-6.9
		c0,0-0.3,0.4-0.9,1.2c-1.6,2.4-2.6,3.9-3.2,4.6c-1.6,1.9-3.1,2.8-4.4,2.8c-0.7,0-1.3-0.3-1.7-0.8c-0.3-0.5-0.5-1-0.5-1.7
		c0-2.1,1.3-4.8,4-8.1c2.7-3.3,4.8-5,6.5-5c0.7,0,1.3,0.4,1.7,1.1c0.3,0.6,0.5,1.2,0.5,1.8c0,1-0.3,1.6-0.9,1.6
		c-0.7,0-1-0.6-0.9-1.9c0-0.8-0.1-1.2-0.4-1.2c-0.9,0-2.2,0.9-3.8,2.7c-1.2,1.3-2.1,2.6-2.7,3.7c-0.5,0.6-1,1.4-1.6,2.5
		c-0.6,1.3-1,2.3-1,3c0,0.5,0.1,0.8,0.3,0.8c0.9,0,2.1-0.8,3.5-2.4c0.5-0.6,1.7-2,3.6-4.3c1.2-1.6,2-2.4,2.4-2.4
		c0.8,0,1.5,1.2,1.9,3.7c0.3,1.7,0.4,3.3,0.4,4.9c0,4-0.8,7.3-2.4,10.1S107.1,276.9,105,276.9z"/>
	<path fill="#F1F2F2" d="M117.7,255.5c1.5-3.9,3.2-5.9,5-5.9c1.2,0,1.9,0.5,2.1,1.6c0.1,0.6-0.1,1-0.6,1c-0.2,0-0.3-0.1-0.4-0.2
		c0-0.1-0.1-0.3-0.1-0.5l0-0.2c0-0.2-0.2-0.4-0.5-0.4c-0.6,0-1.4,0.6-2.3,1.9c-1.1,1.5-1.9,2.9-2.3,4.2c-0.5,1.3-0.7,2.9-0.7,4.6
		c0,0.1,0,1.1,0.1,3c0,0.2-0.1,0.5-0.4,0.7c-0.2,0.2-0.5,0.3-0.7,0.3c-0.7,0-1-0.5-0.9-1.6c0.2-2.5,0.3-4.6,0.3-6.3
		c0-1.7-0.1-3.7-0.3-5.9c0-0.2,0.1-0.5,0.3-0.8c0.2-0.3,0.5-0.4,0.7-0.4c0.4,0,0.7,0.2,0.9,0.6c0.1,0.3,0.2,0.6,0.1,0.8
		C117.8,253.5,117.7,254.6,117.7,255.5z"/>
	<path fill="#F1F2F2" d="M132.8,264c-1.2-0.4-1.8-1.8-1.8-4.1c0-0.2,0-0.5,0-0.8c-1.2,1.6-2.6,3.1-4.1,4.5c-1.9,1.7-3.4,2.6-4.5,2.6
		c-0.4,0-0.7-0.1-0.9-0.3c-0.4-0.3-0.7-0.9-0.7-1.6c0-1.6,0.8-3.7,2.5-6.3c1.6-2.5,3.4-4.6,5.3-6.2c2.1-1.8,3.6-2.3,4.6-1.7
		c0.5,0.3,0.7,0.9,0.7,1.9c0,1.1-0.4,1.8-1.2,1.8c-0.5,0-0.8-0.2-0.8-0.6c0-0.1,0-0.1,0-0.2c0.2-0.6,0.3-1.1,0.3-1.6
		c0-0.3,0-0.4-0.1-0.4c-1.2,0.2-3.2,2.1-6,5.7c-2.8,3.6-4.1,6-4.1,7.4c0,0.5,0.2,0.7,0.6,0.7c1.1,0,2.8-1.4,5.1-4.2
		c1.6-1.9,2.5-3,2.6-3.2c0.7-1,1.1-1.9,1.2-2.7c0.1-0.6,0.4-0.8,0.9-0.8c0.8,0,1.1,0.4,0.9,1.1c-0.6,3.2-0.9,5.1-0.9,5.8
		c0,1.3,0.3,2,0.8,2.1c0.2,0,0.4,0,0.6-0.1c0.2-0.1,0.3-0.2,0.3-0.3c0.1-0.5,0.4-0.8,0.9-0.8c0.3,0,0.4,0.2,0.4,0.5
		c0,0.1,0,0.3-0.1,0.5c-0.4,1-1.1,1.5-2.1,1.5C133.3,264.2,133,264.2,132.8,264z"/>
	<path fill="#F1F2F2" d="M159.6,264.5c-1.1,0-1.9-0.8-2.6-2.3c-0.5-1.2-0.8-2.3-0.8-3.3c0,0.2,0-0.4,0-1.8c0-0.9,0-1.7,0-2.2
		c-0.1-0.7-0.2-1.1-0.4-1.1c0,0-0.4,0.5-0.9,1.4c-2,3.2-3.1,4.9-3.3,5.1c-1.7,2.3-3,3.5-4,3.5s-1.5-1-1.6-3.1c0-0.6,0-2.4,0.2-5.4
		c0-0.7,0-1-0.2-1c-0.4,0-1.4,1.5-3.1,4.6c-1.7,3.1-2.7,5.3-2.8,6.4c0,0.5-0.3,0.7-0.9,0.7c-0.2,0-0.5-0.4-0.7-1.2
		c-0.1-0.6-0.2-1.1-0.2-1.4c0-2.3,0.1-4.2,0.2-5.9c0.1-1.5,0.3-2.8,0.6-3.9c0.3-1.1,0.6-1.7,1-1.7c0.3,0,0.5,0.1,0.8,0.3
		s0.3,0.4,0.3,0.6c-0.7,2.7-1.1,5.4-1.1,8.2c1.3-2.4,2.3-4,2.8-4.8c1.5-2.3,2.7-3.5,3.6-3.5c1,0,1.5,1.2,1.5,3.7
		c0,0.3,0,0.9-0.1,1.8c-0.1,0.8-0.1,1.5-0.1,2c0,1,0.1,1.7,0.3,2.2c0.4-0.1,1.2-0.9,2.3-2.4c0.9-1.2,1.7-2.4,2.3-3.5
		c1.6-2.8,2.8-4.3,3.6-4.3c0.7,0,1.2,0.7,1.4,2.1c0.1,0.9,0.2,2.2,0.3,4.1c0.2,3.3,0.8,5,1.8,5c0.4,0,0.7-0.2,1-0.6s0.5-0.6,0.7-0.6
		c0.3,0,0.5,0.2,0.5,0.6c0,0.5-0.3,0.9-0.9,1.3C160.4,264.3,160,264.5,159.6,264.5z"/>
</g>
</svg>
