<?xml version="1.0" encoding="utf-8"?>
<!-- Generator: Adobe Illustrator 18.1.0, SVG Export Plug-In . SVG Version: 6.00 Build 0)  -->
<svg version="1.1" id="Layer_1" xmlns="http://www.w3.org/2000/svg" xmlns:xlink="http://www.w3.org/1999/xlink" x="0px" y="0px"
	 viewBox="0 0 415.4 397.1" enable-background="new 0 0 415.4 397.1" xml:space="preserve">
<g>
	<g>
		<g>
			<path fill="#182432" d="M191.6,23c0-0.2,0-0.5,0-0.7c0.4-0.2,0.3-0.6,0.4-1c1.3-5.1,4.9-8.6,10.7-10.4c1.1-0.4,2.4-0.5,3.6-0.8
				c0.3,0,0.6,0,0.8,0c0.5,0.2,1,0.2,1.5,0c0.3,0,0.6,0,0.8,0c0.1,0.2,0.3,0.2,0.4,0.2c6.5,0.9,10.9,4,13.2,9.2c0.4,1,0.6,2,1,3
				c0,0.2,0,0.4,0,0.5c-0.2,0.1-0.2,0.2-0.2,0.4c0,0.5,0,1,0,1.4c0,0.1,0,0.3,0.2,0.3c0,0.2,0,0.5,0,0.7c-0.4,0.2-0.3,0.6-0.4,0.9
				c-1.5,5.5-5.4,9-11.8,10.6c-0.7,0.2-1.4,0.1-2,0.5c-0.2,0-0.4,0-0.6,0c-0.1-0.2-0.2-0.2-0.4-0.2c-0.2,0-0.4,0-0.6,0
				c-0.4,0-0.9-0.1-1.3,0.1c-0.3,0-0.7,0-1,0c-0.2-0.3-0.6-0.2-0.8-0.3c-7-1.4-11.4-5-13-11c-0.1-0.2,0-0.6-0.4-0.7
				c0-0.2,0-0.5,0-0.7c0.3-0.1,0.2-0.3,0.2-0.5c0-0.4,0-0.9,0-1.3C191.8,23.2,191.8,23.1,191.6,23z M220.2,23.9
				c0-5.9-5.6-10.7-12.5-10.7c-7,0-12.6,4.8-12.6,10.8c0,5.8,5.7,10.6,12.5,10.6C214.6,34.6,220.2,29.8,220.2,23.9z"/>
		</g>
		<path fill="#1F3854" d="M220.2,23.9c0,5.9-5.7,10.7-12.6,10.7c-6.8,0-12.5-4.9-12.5-10.6c0-6,5.6-10.8,12.6-10.8
			C214.6,13.2,220.2,18,220.2,23.9z M207.6,31.2c4.7,0,8.4-3.1,8.4-7.1c0-4-3.8-7.2-8.3-7.2c-4.6,0-8.4,3.3-8.4,7.2
			C199.3,28.1,203,31.2,207.6,31.2z"/>
		<path fill="#182432" d="M207.6,31.2c-4.6,0-8.3-3.2-8.3-7.1c0-4,3.8-7.2,8.4-7.2c4.6,0,8.3,3.3,8.3,7.2
			C216.1,28.1,212.4,31.2,207.6,31.2z M212.5,21.8c0-2.2-2.1-4-4.7-4c-2.5,0-4.7,1.8-4.7,4c0,2.2,2.2,4.1,4.7,4.1
			C210.4,25.8,212.5,24,212.5,21.8z M209.1,28.2c0-0.6-0.7-1.2-1.4-1.2c-0.7,0-1.4,0.6-1.4,1.2c0,0.6,0.7,1.2,1.4,1.2
			C208.4,29.4,209.1,28.8,209.1,28.2z"/>
		<path fill="#28496B" d="M212.5,21.8c0,2.2-2.2,4-4.7,4c-2.6,0-4.7-1.9-4.7-4.1c0-2.2,2.2-4,4.7-4
			C210.4,17.8,212.5,19.7,212.5,21.8z"/>
		<path fill="#28496B" d="M209.1,28.2c0,0.6-0.7,1.2-1.4,1.2c-0.7,0-1.4-0.6-1.4-1.2c0-0.6,0.7-1.2,1.4-1.2
			C208.5,27,209.1,27.6,209.1,28.2z"/>
	</g>
</g>
<path fill="#8B5E3C" stroke="#1C75BC" stroke-width="4" stroke-miterlimit="10" d="M15.1,128.1c50.1,0,99.9,0,150.1,0
	c-9.4,22-10,44-1.3,66c6.3,15.9,16.8,28.6,30.9,38.3c28.4,19.4,67.1,18.9,95.1-0.2c25.5-17.4,48.9-58.4,29.6-104
	c27.2,0,54.3,0,81.7,0c0.1,1.3,0.2,2.6,0.2,3.8c-0.1,40-0.2,80.1-0.1,120.1c0,13.7-5.1,24.6-17.7,30.5c-4.7,2.2-10.4,3.2-15.7,3.3
	c-69.7,0.2-139.4,0.1-209.2,0.1c-36.9,0-73.9,0-110.8,0c-13.5,0-23.8-5.4-29.7-17.6c-1.9-4-3.1-8.9-3.1-13.4
	c-0.2-41.7-0.1-83.4-0.1-125.1C14.9,129.5,15,129,15.1,128.1z"/>
<path fill="#8B5E3C" stroke="#1C75BC" stroke-width="4" stroke-miterlimit="10" d="M400.9,119.5c-3.1,0-5.8,0-8.5,0
	c-24.8,0-49.6-0.1-74.4,0c-2.5,0-4.2-0.5-5.7-2.8c-11.2-17.3-26.8-29.2-46.6-35c-23.6-7-46.2-3.8-67.3,8.9
	c-11,6.6-19.8,15.6-27,26.2c-0.8,1.2-2.7,2.5-4.1,2.5c-50.2,0.1-100.4,0-150.6,0c-0.4,0-0.7-0.1-1.4-0.2c-0.1-0.8-0.4-1.6-0.4-2.5
	c0-14.6-0.2-29.2,0-43.8c0.2-15.1,9.6-26.6,24.2-30.1C42,42,45,41.9,48,41.9c106.6,0,213.2,0,319.9,0c16.7,0,28.1,8.5,32.3,23.9
	c0.7,2.6,1,5.3,1,8c0.1,14.5,0,28.9,0,43.4C401.2,117.8,401,118.4,400.9,119.5z"/>
<g>
	<g>
		<g>
			<path fill="#182432" d="M188.6,158.4c0-0.9,0-1.8,0-2.7c1.3-0.9,1-2.5,1.2-3.7c4.4-19.7,16.2-33,35.1-39.9c3.8-1.4,7.8-2,11.7-3
				c0.9,0,1.8,0,2.7,0c1.6,0.9,3.2,0.9,4.8,0c0.9,0,1.8,0,2.7,0c0.3,0.6,0.9,0.6,1.4,0.7c21.3,3.4,35.8,15.2,43.5,35.4
				c1.4,3.7,2.1,7.5,3.1,11.3c0,0.7,0,1.4,0,2.1c-0.5,0.3-0.6,0.8-0.6,1.4c0,1.9,0,3.7,0,5.6c0,0.5,0,1.1,0.6,1.3c0,0.9,0,1.8,0,2.7
				c-1.3,0.8-1,2.2-1.3,3.3c-5,21.1-17.9,34.6-38.6,40.7c-2.2,0.7-4.7,0.4-6.7,1.9c-0.7,0-1.4,0-2.1,0c-0.3-0.6-0.8-0.6-1.3-0.6
				c-0.7,0-1.4,0.1-2.1,0.1c-1.4,0-2.8-0.5-4.1,0.5c-1.1,0-2.3,0-3.4,0c-0.6-1.2-1.8-0.8-2.7-1c-23.1-5.2-37.4-19.2-42.8-42.3
				c-0.2-0.9,0-2.1-1.2-2.7c0-0.9,0-1.8,0-2.7c0.8-0.5,0.6-1.3,0.6-2c0-1.6,0-3.3,0-4.9C189.2,159.2,189.2,158.7,188.6,158.4z
				 M282.6,161.8c0-22.5-18.5-41.1-41-41.2c-22.9,0-41.4,18.5-41.3,41.5c0,22.2,18.7,40.8,41,40.8
				C264.1,203,282.6,184.5,282.6,161.8z"/>
		</g>
		<path fill="#1F3854" d="M282.6,161.8c0,22.7-18.6,41.2-41.3,41.2c-22.3,0-41-18.6-41-40.8c0-23,18.4-41.5,41.3-41.5
			C264.1,120.7,282.6,139.3,282.6,161.8z M241.3,190c15.5,0,27.7-12,27.7-27.2c0-15.2-12.4-27.7-27.4-27.7
			c-15,0-27.4,12.5-27.5,27.6C214,177.8,226.1,189.9,241.3,190z"/>
		<path fill="#182432" d="M241.3,190c-15.2,0-27.3-12.1-27.2-27.2c0-15.2,12.5-27.7,27.5-27.6c15,0,27.4,12.5,27.4,27.7
			C268.9,178,256.7,190,241.3,190z M257.2,153.9c0-8.3-7.1-15.4-15.3-15.4c-8.3-0.1-15.4,7-15.5,15.2c-0.1,8.4,7.1,15.6,15.5,15.6
			C250.2,169.3,257.2,162.2,257.2,153.9z M246.1,178.4c0.1-2.4-2.1-4.6-4.5-4.7c-2.4-0.1-4.6,2.1-4.7,4.5c-0.1,2.4,2.2,4.6,4.5,4.7
			C243.7,182.9,246,180.7,246.1,178.4z"/>
		<path fill="#28496B" d="M257.2,153.9c0,8.3-7.1,15.4-15.3,15.4c-8.4,0-15.6-7.2-15.5-15.6c0.1-8.3,7.2-15.3,15.5-15.2
			C250.2,138.6,257.2,145.7,257.2,153.9z"/>
		<path fill="#28496B" d="M246.1,178.4c-0.1,2.4-2.3,4.6-4.7,4.5c-2.4-0.1-4.6-2.3-4.5-4.7c0.1-2.4,2.3-4.6,4.7-4.5
			C243.9,173.7,246.1,176,246.1,178.4z"/>
	</g>
</g>
<path fill="none" stroke="#1C75BC" stroke-width="4" stroke-miterlimit="10" d="M188.3,162.5c0.4-30.3,25.1-54.5,55.2-53.9
	c28.1,0.5,52.8,24.1,52.5,54.6c-0.2,30.1-24.9,53.5-55,53.1C211.9,215.9,187.9,191.4,188.3,162.5z"/>
<path fill="#D1C2B9" stroke="#1C75BC" stroke-width="4" stroke-miterlimit="10" d="M271.6,37.2c-43.4,0-86,0-129.3,0
	c5.1-7.4,10.2-14.2,14.5-21.5c2.9-4.9,6.3-6.5,12-6.4c27.2,0.4,54.4,0.2,81.7,0.1c3,0,4.6,0.9,6.1,3.4
	C261.3,20.9,266.3,28.8,271.6,37.2z M191.2,15.9c0,5.6,0,10.7,0,15.7c11.1,0,21.9,0,32.7,0c0-5.4,0-10.5,0-15.7
	C212.9,15.9,202.2,15.9,191.2,15.9z"/>
<path fill="#182432" stroke="#1C75BC" stroke-width="3" stroke-miterlimit="10" d="M310.8,37.1c2.1-4.9,3.8-9.4,5.9-13.8
	c0.5-0.9,2.1-1.9,3.2-1.9c11.1-0.1,22.1-0.1,33.2,0c1,0,2.5,0.5,2.8,1.2c2,4.7,3.8,9.4,5.8,14.5C344.6,37.1,328,37.1,310.8,37.1z"/>
<path fill="#182432" stroke="#1C75BC" stroke-width="3" stroke-miterlimit="10" d="M98.2,37.1c-11.7,0-22.7,0-34.1,0
	c0.8-2.8,1.4-5.4,2.5-7.9c0.4-1,1.9-2.1,2.9-2.1c8-0.2,16-0.2,24,0c1,0,2.5,1.4,2.9,2.5C97.2,31.8,97.6,34.3,98.2,37.1z"/>
<text transform="matrix(1 0 0 1 21.3813 357.4608)" fill="#8B5E3C" font-family="'Angelina'" font-size="106.5947">Picstagram</text>
</svg>
